<?xml version="1.0" encoding="iso-8859-1"?>
<!-- Generator: Adobe Illustrator 19.0.0, SVG Export Plug-In . SVG Version: 6.00 Build 0)  -->
<svg version="1.1" id="Layer_1" xmlns="http://www.w3.org/2000/svg" xmlns:xlink="http://www.w3.org/1999/xlink" x="0px" y="0px"
	 viewBox="0 0 511.998 511.998" style="enable-background:new 0 0 511.998 511.998;" xml:space="preserve">
<g>
	<g>
		<path d="M490.612,311.993c-28.613-28.478-75.172-28.479-103.802,0.016c-2.094,2.095-4.057,4.325-5.88,6.677l-39.531-39.532
			l-12.456,12.455l55.506,55.506l5.637-10.336c2.494-4.574,5.583-8.717,9.167-12.301c21.762-21.661,57.173-21.661,78.904-0.028
			c21.661,21.762,21.661,57.171,0.014,78.919c-12.78,12.781-31.141,18.578-49.126,15.512l-12.253-2.09l2.089,12.253
			c3.067,17.982-2.733,36.347-15.498,49.112c-21.763,21.661-57.171,21.661-78.904,0.029c-21.66-21.762-21.66-57.171-0.014-78.919
			c3.597-3.597,7.741-6.686,12.315-9.182l10.335-5.637l-55.505-55.505l-12.456,12.454l39.534,39.534
			c-2.357,1.825-4.591,3.792-6.692,5.894c-28.48,28.614-28.48,75.172,0.028,103.814c14.305,14.238,33.095,21.359,51.888,21.359
			c18.797,0,37.597-7.124,51.913-21.373c14.154-14.154,21.802-33.492,21.466-53.336c19.802,0.318,39.184-7.315,53.35-21.48
			C519.121,387.195,519.121,340.636,490.612,311.993z"/>
	</g>
</g>
<g>
	<g>
		<path d="M175.217,121.915l-10.335,5.637l64.219,64.218l12.456-12.455l-48.248-48.247c2.357-1.825,4.59-3.792,6.692-5.894
			c28.481-28.614,28.481-75.172-0.028-103.814c-28.61-28.482-75.17-28.482-103.8,0.013C82.019,35.528,74.372,54.865,74.709,74.71
			c-19.89-0.337-39.185,7.316-53.351,21.48c-28.48,28.614-28.48,75.172,0.028,103.814c28.613,28.481,75.172,28.481,103.801-0.014
			c2.094-2.095,4.057-4.325,5.88-6.678l42.351,42.352l12.456-12.454l-58.323-58.323l-5.637,10.333
			c-2.495,4.575-5.586,8.719-9.169,12.303c-21.762,21.66-57.17,21.659-78.904,0.028c-21.66-21.762-21.66-57.171-0.014-78.919
			c12.781-12.78,31.143-18.58,49.128-15.512l12.254,2.09l-2.09-12.254c-3.067-17.981,2.73-36.345,15.497-49.112
			c21.761-21.661,57.171-21.661,78.904-0.028c21.661,21.762,21.661,57.171,0.014,78.919
			C183.935,116.33,179.791,119.419,175.217,121.915z"/>
	</g>
</g>
<g>
	<g>
		
			<rect x="43.235" y="135.057" transform="matrix(0.7071 -0.7071 0.7071 0.7071 -83.9081 85.1564)" width="35.207" height="17.614"/>
	</g>
</g>
<g>
	<g>
		
			<rect x="84.807" y="126.823" transform="matrix(0.7071 -0.7071 0.7071 0.7071 -65.9097 112.1396)" width="35.206" height="17.614"/>
	</g>
</g>
<g>
	<g>
		
			<rect x="433.536" y="359.325" transform="matrix(0.7071 -0.7071 0.7071 0.7071 -128.1732 426.8277)" width="35.206" height="17.614"/>
	</g>
</g>
<g>
	<g>
		
			<rect x="391.979" y="367.562" transform="matrix(0.7071 -0.7071 0.7071 0.7071 -146.1694 399.8545)" width="35.207" height="17.614"/>
	</g>
</g>
<g>
	<g>
		<path d="M490.625,96.177c-14.156-14.155-33.499-21.799-53.336-21.466c0.336-19.845-7.315-39.185-21.481-53.35
			c-28.614-28.48-75.173-28.48-103.814,0.028c-28.48,28.614-28.48,75.172,0.014,103.8c2.095,2.095,4.326,4.058,6.678,5.88
			L199.982,249.772l-68.915,68.915c-1.826-2.356-3.792-4.591-5.895-6.692c-28.614-28.48-75.173-28.48-103.814,0.028
			c-28.479,28.614-28.479,75.172,0.014,103.8c14.155,14.154,33.463,21.787,53.337,21.466c-0.337,19.844,7.313,39.184,21.48,53.35
			c14.304,14.237,33.09,21.358,51.882,21.358c18.802,0,37.608-7.128,51.933-21.386c28.481-28.614,28.481-75.172-0.014-103.8
			c-2.096-2.095-4.326-4.057-6.678-5.88l187.619-187.619c1.825,2.356,3.792,4.59,5.894,6.692
			c28.614,28.481,75.173,28.481,103.814-0.028C519.12,171.363,519.12,124.805,490.625,96.177z M478.185,187.521
			c-21.762,21.661-57.173,21.66-78.918,0.014c-3.598-3.598-6.686-7.741-9.181-12.315l-5.637-10.336L164.884,384.449l10.335,5.637
			c4.575,2.495,8.718,5.584,12.302,9.168c21.661,21.762,21.661,57.17,0.028,78.904c-21.762,21.661-57.173,21.66-78.918,0.014
			c-12.782-12.781-18.58-31.146-15.512-49.126l2.09-12.254l-12.254,2.09c-17.983,3.066-36.347-2.733-49.113-15.498
			c-21.66-21.762-21.66-57.171-0.028-78.904c21.763-21.661,57.174-21.66,78.918-0.014c3.597,3.597,6.688,7.741,9.183,12.317
			l5.637,10.333l219.564-219.564l-10.335-5.637c-4.575-2.495-8.718-5.584-12.302-9.168c-21.66-21.762-21.66-57.171-0.028-78.904
			c21.763-21.661,57.174-21.66,78.918-0.014c12.781,12.781,18.581,31.146,15.514,49.128l-2.089,12.253l12.253-2.09
			c17.982-3.065,36.345,2.733,49.112,15.498C499.817,130.379,499.817,165.789,478.185,187.521z"/>
	</g>
</g>
<g>
	<g>
		<rect x="359.33" y="43.218" transform="matrix(0.7071 -0.7071 0.7071 0.7071 64.8176 278.1261)" width="17.614" height="35.206"/>
	</g>
</g>
<g>
	<g>
		
			<rect x="367.567" y="84.813" transform="matrix(0.7071 -0.7071 0.7071 0.7071 37.8186 296.1336)" width="17.614" height="35.206"/>
	</g>
</g>
<g>
	<g>
		
			<rect x="135.052" y="433.573" transform="matrix(0.7071 -0.7071 0.7071 0.7071 -276.8942 233.8698)" width="17.614" height="35.206"/>
	</g>
</g>
<g>
	<g>
		
			<rect x="126.827" y="391.98" transform="matrix(0.7071 -0.7071 0.7071 0.7071 -249.8928 215.8721)" width="17.614" height="35.206"/>
	</g>
</g>
<g>
</g>
<g>
</g>
<g>
</g>
<g>
</g>
<g>
</g>
<g>
</g>
<g>
</g>
<g>
</g>
<g>
</g>
<g>
</g>
<g>
</g>
<g>
</g>
<g>
</g>
<g>
</g>
<g>
</g>
</svg>
